<svg width="1600" height="1200" viewBox="0 0 1600 1200" fill="none" xmlns="http://www.w3.org/2000/svg">
  <rect width="1600" height="1200" fill="#08111F"/>
  <rect width="1600" height="1200" fill="url(#paint0_linear)"/>
  <g opacity="0.24">
    <path d="M84 214C186 170 270 165 367 190C478 218 545 278 659 300C799 327 934 285 1044 235C1140 191 1220 148 1318 141C1412 135 1491 164 1570 226" stroke="#F8FAFC" stroke-width="2"/>
    <path d="M-22 302C86 255 169 242 274 260C409 284 479 361 616 384C759 408 887 348 1002 302C1113 258 1225 214 1349 217C1444 219 1523 250 1630 319" stroke="#F8FAFC" stroke-opacity="0.7" stroke-width="2"/>
    <path d="M-51 432C77 378 180 360 303 379C447 401 522 493 666 517C809 541 929 482 1040 430C1176 367 1294 332 1434 351C1519 362 1582 392 1650 431" stroke="#F8FAFC" stroke-opacity="0.54" stroke-width="2"/>
    <path d="M-88 585C57 534 156 521 302 546C432 568 520 649 648 683C807 725 945 686 1078 632C1228 572 1364 520 1527 548C1572 556 1615 571 1657 590" stroke="#F8FAFC" stroke-opacity="0.44" stroke-width="2"/>
    <path d="M-74 747C77 694 176 695 333 727C476 757 563 830 702 864C856 901 993 872 1126 824C1251 779 1381 733 1515 750C1589 760 1645 787 1695 820" stroke="#F8FAFC" stroke-opacity="0.32" stroke-width="2"/>
  </g>
  <g opacity="0.12">
    <circle cx="270" cy="278" r="182" fill="url(#paint1_radial)"/>
    <circle cx="1304" cy="240" r="248" fill="url(#paint2_radial)"/>
    <circle cx="1162" cy="904" r="308" fill="url(#paint3_radial)"/>
  </g>
  <g opacity="0.22">
    <path d="M318 948C470 843 585 801 707 801C829 801 904 855 1004 863C1088 869 1175 848 1301 766" stroke="#38B6FF" stroke-width="3" stroke-linecap="round"/>
    <path d="M290 1011C408 932 504 890 613 885C734 880 852 951 982 958C1075 963 1165 943 1272 871" stroke="#F97316" stroke-width="3" stroke-linecap="round"/>
  </g>
  <g opacity="0.9">
    <circle cx="805" cy="502" r="11" fill="#F97316"/>
    <circle cx="805" cy="502" r="31" stroke="#F97316" stroke-opacity="0.35" stroke-width="10"/>
    <circle cx="805" cy="502" r="74" stroke="#F97316" stroke-opacity="0.18" stroke-width="18"/>
  </g>
  <g opacity="0.55">
    <path d="M760 490L700 454" stroke="#E2E8F0" stroke-width="3" stroke-linecap="round"/>
    <path d="M850 490L910 454" stroke="#E2E8F0" stroke-width="3" stroke-linecap="round"/>
    <path d="M760 514L700 550" stroke="#E2E8F0" stroke-width="3" stroke-linecap="round"/>
    <path d="M850 514L910 550" stroke="#E2E8F0" stroke-width="3" stroke-linecap="round"/>
  </g>
  <g opacity="0.18">
    <path d="M252 145H532" stroke="#F8FAFC" stroke-width="2" stroke-linecap="round"/>
    <path d="M1090 1006H1368" stroke="#F8FAFC" stroke-width="2" stroke-linecap="round"/>
    <path d="M1180 128L1465 128" stroke="#F8FAFC" stroke-width="2" stroke-linecap="round"/>
    <path d="M1304 984V1106" stroke="#F8FAFC" stroke-width="2" stroke-linecap="round"/>
    <path d="M236 835V962" stroke="#F8FAFC" stroke-width="2" stroke-linecap="round"/>
  </g>
  <defs>
    <linearGradient id="paint0_linear" x1="238" y1="126" x2="1239" y2="1101" gradientUnits="userSpaceOnUse">
      <stop stop-color="#10243B"/>
      <stop offset="0.52" stop-color="#0C1828"/>
      <stop offset="1" stop-color="#10243B"/>
    </linearGradient>
    <radialGradient id="paint1_radial" cx="0" cy="0" r="1" gradientUnits="userSpaceOnUse" gradientTransform="translate(270 278) rotate(90) scale(182)">
      <stop stop-color="#38B6FF"/>
      <stop offset="1" stop-color="#38B6FF" stop-opacity="0"/>
    </radialGradient>
    <radialGradient id="paint2_radial" cx="0" cy="0" r="1" gradientUnits="userSpaceOnUse" gradientTransform="translate(1304 240) rotate(90) scale(248)">
      <stop stop-color="#F97316"/>
      <stop offset="1" stop-color="#F97316" stop-opacity="0"/>
    </radialGradient>
    <radialGradient id="paint3_radial" cx="0" cy="0" r="1" gradientUnits="userSpaceOnUse" gradientTransform="translate(1162 904) rotate(90) scale(308)">
      <stop stop-color="#38B6FF"/>
      <stop offset="1" stop-color="#38B6FF" stop-opacity="0"/>
    </radialGradient>
  </defs>
</svg>
